<mxfile host="app.diagrams.net" agent="Mozilla/5.0 (Windows NT 10.0; Win64; x64) AppleWebKit/537.36 (KHTML, like Gecko) Chrome/129.0.0.0 Safari/537.36" version="24.8.0">
  <diagram name="Страница — 1" id="vE91jcc0LtDm3Qv-tSm8">
    <mxGraphModel dx="719" dy="480" grid="1" gridSize="10" guides="1" tooltips="1" connect="1" arrows="1" fold="1" page="0" pageScale="1" pageWidth="827" pageHeight="1169" math="0" shadow="0">
      <root>
        <mxCell id="0" />
        <mxCell id="1" parent="0" />
        <mxCell id="213UL1gpD_efmZV_QsKg-2" value="" style="ellipse;whiteSpace=wrap;html=1;aspect=fixed;" vertex="1" parent="1">
          <mxGeometry x="200" y="200" width="80" height="80" as="geometry" />
        </mxCell>
        <mxCell id="213UL1gpD_efmZV_QsKg-8" value="&lt;font style=&quot;font-size: 14px;&quot;&gt;&lt;b&gt;E&lt;sub&gt;0&lt;/sub&gt;(0/0/0)&lt;/b&gt;&lt;/font&gt;" style="text;html=1;align=center;verticalAlign=middle;whiteSpace=wrap;rounded=0;" vertex="1" parent="1">
          <mxGeometry x="210" y="225" width="60" height="30" as="geometry" />
        </mxCell>
        <mxCell id="213UL1gpD_efmZV_QsKg-22" value="&lt;font style=&quot;font-size: 14px;&quot;&gt;p&lt;sub style=&quot;&quot;&gt;1&lt;/sub&gt;&lt;span style=&quot;color: rgb(77, 81, 86); font-family: Arial, sans-serif; text-align: left;&quot;&gt;λ&lt;/span&gt;&lt;/font&gt;" style="text;html=1;align=center;verticalAlign=middle;whiteSpace=wrap;rounded=0;" vertex="1" parent="1">
          <mxGeometry y="340" width="60" height="30" as="geometry" />
        </mxCell>
        <mxCell id="213UL1gpD_efmZV_QsKg-25" value="&lt;font style=&quot;font-size: 16px;&quot;&gt;u&lt;/font&gt;" style="text;html=1;align=center;verticalAlign=middle;whiteSpace=wrap;rounded=0;" vertex="1" parent="1">
          <mxGeometry y="300" width="60" height="30" as="geometry" />
        </mxCell>
        <mxCell id="213UL1gpD_efmZV_QsKg-34" value="" style="ellipse;whiteSpace=wrap;html=1;aspect=fixed;" vertex="1" parent="1">
          <mxGeometry x="360" y="120" width="80" height="80" as="geometry" />
        </mxCell>
        <mxCell id="213UL1gpD_efmZV_QsKg-35" value="" style="ellipse;whiteSpace=wrap;html=1;aspect=fixed;" vertex="1" parent="1">
          <mxGeometry x="360" y="280" width="80" height="80" as="geometry" />
        </mxCell>
        <mxCell id="213UL1gpD_efmZV_QsKg-36" value="" style="ellipse;whiteSpace=wrap;html=1;aspect=fixed;" vertex="1" parent="1">
          <mxGeometry x="520" y="120" width="80" height="80" as="geometry" />
        </mxCell>
        <mxCell id="213UL1gpD_efmZV_QsKg-37" value="" style="ellipse;whiteSpace=wrap;html=1;aspect=fixed;" vertex="1" parent="1">
          <mxGeometry x="520" y="275" width="80" height="80" as="geometry" />
        </mxCell>
        <mxCell id="213UL1gpD_efmZV_QsKg-38" value="" style="ellipse;whiteSpace=wrap;html=1;aspect=fixed;" vertex="1" parent="1">
          <mxGeometry x="680" y="120" width="80" height="80" as="geometry" />
        </mxCell>
        <mxCell id="213UL1gpD_efmZV_QsKg-39" value="" style="ellipse;whiteSpace=wrap;html=1;aspect=fixed;" vertex="1" parent="1">
          <mxGeometry x="680" y="280" width="80" height="80" as="geometry" />
        </mxCell>
        <mxCell id="213UL1gpD_efmZV_QsKg-40" value="" style="ellipse;whiteSpace=wrap;html=1;aspect=fixed;" vertex="1" parent="1">
          <mxGeometry x="840" y="120" width="80" height="80" as="geometry" />
        </mxCell>
        <mxCell id="213UL1gpD_efmZV_QsKg-41" value="" style="ellipse;whiteSpace=wrap;html=1;aspect=fixed;" vertex="1" parent="1">
          <mxGeometry x="840" y="280" width="80" height="80" as="geometry" />
        </mxCell>
        <mxCell id="213UL1gpD_efmZV_QsKg-42" value="&lt;font style=&quot;&quot;&gt;&lt;b style=&quot;&quot;&gt;&lt;span style=&quot;font-size: 14px;&quot;&gt;E&lt;/span&gt;&lt;span style=&quot;font-size: 11.6667px;&quot;&gt;&lt;sub&gt;5&lt;/sub&gt;&lt;/span&gt;&lt;span style=&quot;font-size: 14px;&quot;&gt;(1/0/2)&lt;/span&gt;&lt;/b&gt;&lt;/font&gt;" style="text;html=1;align=center;verticalAlign=middle;whiteSpace=wrap;rounded=0;" vertex="1" parent="1">
          <mxGeometry x="690" y="145" width="60" height="30" as="geometry" />
        </mxCell>
        <mxCell id="213UL1gpD_efmZV_QsKg-43" value="&lt;font style=&quot;&quot;&gt;&lt;b style=&quot;&quot;&gt;&lt;span style=&quot;font-size: 14px;&quot;&gt;E&lt;/span&gt;&lt;span style=&quot;font-size: 11.6667px;&quot;&gt;&lt;sub&gt;4&lt;/sub&gt;&lt;/span&gt;&lt;span style=&quot;font-size: 14px;&quot;&gt;(0/1/1)&lt;/span&gt;&lt;/b&gt;&lt;/font&gt;" style="text;html=1;align=center;verticalAlign=middle;whiteSpace=wrap;rounded=0;" vertex="1" parent="1">
          <mxGeometry x="530" y="305" width="60" height="30" as="geometry" />
        </mxCell>
        <mxCell id="213UL1gpD_efmZV_QsKg-44" value="&lt;font style=&quot;&quot;&gt;&lt;b style=&quot;&quot;&gt;&lt;span style=&quot;font-size: 14px;&quot;&gt;E&lt;/span&gt;&lt;span style=&quot;font-size: 11.6667px;&quot;&gt;&lt;sub&gt;3&lt;/sub&gt;&lt;/span&gt;&lt;span style=&quot;font-size: 14px;&quot;&gt;(1/0/1)&lt;/span&gt;&lt;/b&gt;&lt;/font&gt;" style="text;html=1;align=center;verticalAlign=middle;whiteSpace=wrap;rounded=0;" vertex="1" parent="1">
          <mxGeometry x="530" y="145" width="60" height="30" as="geometry" />
        </mxCell>
        <mxCell id="213UL1gpD_efmZV_QsKg-45" value="&lt;font style=&quot;&quot;&gt;&lt;b style=&quot;&quot;&gt;&lt;span style=&quot;font-size: 14px;&quot;&gt;E&lt;/span&gt;&lt;span style=&quot;font-size: 11.6667px;&quot;&gt;&lt;sub&gt;2&lt;/sub&gt;&lt;/span&gt;&lt;span style=&quot;font-size: 14px;&quot;&gt;(0/1/0)&lt;/span&gt;&lt;/b&gt;&lt;/font&gt;" style="text;html=1;align=center;verticalAlign=middle;whiteSpace=wrap;rounded=0;" vertex="1" parent="1">
          <mxGeometry x="370" y="305" width="60" height="30" as="geometry" />
        </mxCell>
        <mxCell id="213UL1gpD_efmZV_QsKg-46" value="&lt;font style=&quot;&quot;&gt;&lt;b style=&quot;&quot;&gt;&lt;span style=&quot;font-size: 14px;&quot;&gt;E&lt;/span&gt;&lt;span style=&quot;font-size: 11.6667px;&quot;&gt;&lt;sub&gt;1&lt;/sub&gt;&lt;/span&gt;&lt;span style=&quot;font-size: 14px;&quot;&gt;(1/0/0)&lt;/span&gt;&lt;/b&gt;&lt;/font&gt;" style="text;html=1;align=center;verticalAlign=middle;whiteSpace=wrap;rounded=0;" vertex="1" parent="1">
          <mxGeometry x="370" y="145" width="60" height="30" as="geometry" />
        </mxCell>
        <mxCell id="213UL1gpD_efmZV_QsKg-47" value="&lt;font style=&quot;&quot;&gt;&lt;b style=&quot;&quot;&gt;&lt;span style=&quot;font-size: 14px;&quot;&gt;E&lt;/span&gt;&lt;font size=&quot;1&quot;&gt;&lt;sub&gt;8&lt;/sub&gt;&lt;/font&gt;&lt;span style=&quot;font-size: 14px;&quot;&gt;(0/1/3)&lt;/span&gt;&lt;/b&gt;&lt;/font&gt;" style="text;html=1;align=center;verticalAlign=middle;whiteSpace=wrap;rounded=0;" vertex="1" parent="1">
          <mxGeometry x="850" y="305" width="60" height="30" as="geometry" />
        </mxCell>
        <mxCell id="213UL1gpD_efmZV_QsKg-48" value="&lt;font style=&quot;&quot;&gt;&lt;b style=&quot;&quot;&gt;&lt;span style=&quot;font-size: 14px;&quot;&gt;E&lt;/span&gt;&lt;font size=&quot;1&quot;&gt;&lt;sub&gt;7&lt;/sub&gt;&lt;/font&gt;&lt;span style=&quot;font-size: 14px;&quot;&gt;(1/0/3)&lt;/span&gt;&lt;/b&gt;&lt;/font&gt;" style="text;html=1;align=center;verticalAlign=middle;whiteSpace=wrap;rounded=0;" vertex="1" parent="1">
          <mxGeometry x="850" y="145" width="60" height="30" as="geometry" />
        </mxCell>
        <mxCell id="213UL1gpD_efmZV_QsKg-49" value="&lt;font style=&quot;&quot;&gt;&lt;b style=&quot;&quot;&gt;&lt;span style=&quot;font-size: 14px;&quot;&gt;E&lt;/span&gt;&lt;span style=&quot;font-size: 11.6667px;&quot;&gt;&lt;sub&gt;6&lt;/sub&gt;&lt;/span&gt;&lt;span style=&quot;font-size: 14px;&quot;&gt;(0/1/2)&lt;/span&gt;&lt;/b&gt;&lt;/font&gt;" style="text;html=1;align=center;verticalAlign=middle;whiteSpace=wrap;rounded=0;" vertex="1" parent="1">
          <mxGeometry x="690" y="305" width="60" height="30" as="geometry" />
        </mxCell>
        <mxCell id="213UL1gpD_efmZV_QsKg-50" value="" style="endArrow=classic;startArrow=classic;html=1;rounded=0;entryX=0;entryY=0.5;entryDx=0;entryDy=0;exitX=1;exitY=0.5;exitDx=0;exitDy=0;" edge="1" parent="1" source="213UL1gpD_efmZV_QsKg-2" target="213UL1gpD_efmZV_QsKg-34">
          <mxGeometry width="50" height="50" relative="1" as="geometry">
            <mxPoint x="484" y="310" as="sourcePoint" />
            <mxPoint x="534" y="260" as="targetPoint" />
          </mxGeometry>
        </mxCell>
        <mxCell id="213UL1gpD_efmZV_QsKg-51" value="" style="endArrow=classic;startArrow=classic;html=1;rounded=0;exitX=1;exitY=0.5;exitDx=0;exitDy=0;entryX=0;entryY=0.5;entryDx=0;entryDy=0;" edge="1" parent="1" source="213UL1gpD_efmZV_QsKg-2" target="213UL1gpD_efmZV_QsKg-35">
          <mxGeometry width="50" height="50" relative="1" as="geometry">
            <mxPoint x="530" y="310" as="sourcePoint" />
            <mxPoint x="580" y="260" as="targetPoint" />
          </mxGeometry>
        </mxCell>
        <mxCell id="213UL1gpD_efmZV_QsKg-52" value="" style="endArrow=classic;startArrow=classic;html=1;rounded=0;exitX=1;exitY=0.5;exitDx=0;exitDy=0;entryX=0;entryY=0.5;entryDx=0;entryDy=0;" edge="1" parent="1" source="213UL1gpD_efmZV_QsKg-34" target="213UL1gpD_efmZV_QsKg-36">
          <mxGeometry width="50" height="50" relative="1" as="geometry">
            <mxPoint x="530" y="310" as="sourcePoint" />
            <mxPoint x="580" y="260" as="targetPoint" />
          </mxGeometry>
        </mxCell>
        <mxCell id="213UL1gpD_efmZV_QsKg-53" value="" style="endArrow=classic;startArrow=classic;html=1;rounded=0;entryX=0;entryY=0.5;entryDx=0;entryDy=0;exitX=1;exitY=0.5;exitDx=0;exitDy=0;" edge="1" parent="1" source="213UL1gpD_efmZV_QsKg-36" target="213UL1gpD_efmZV_QsKg-38">
          <mxGeometry width="50" height="50" relative="1" as="geometry">
            <mxPoint x="530" y="310" as="sourcePoint" />
            <mxPoint x="580" y="260" as="targetPoint" />
          </mxGeometry>
        </mxCell>
        <mxCell id="213UL1gpD_efmZV_QsKg-54" value="" style="endArrow=classic;startArrow=classic;html=1;rounded=0;entryX=0;entryY=0.5;entryDx=0;entryDy=0;exitX=1;exitY=0.5;exitDx=0;exitDy=0;" edge="1" parent="1" source="213UL1gpD_efmZV_QsKg-38" target="213UL1gpD_efmZV_QsKg-40">
          <mxGeometry width="50" height="50" relative="1" as="geometry">
            <mxPoint x="530" y="310" as="sourcePoint" />
            <mxPoint x="580" y="260" as="targetPoint" />
          </mxGeometry>
        </mxCell>
        <mxCell id="213UL1gpD_efmZV_QsKg-55" value="" style="endArrow=classic;startArrow=classic;html=1;rounded=0;exitX=1;exitY=0.5;exitDx=0;exitDy=0;entryX=0;entryY=0.5;entryDx=0;entryDy=0;" edge="1" parent="1">
          <mxGeometry width="50" height="50" relative="1" as="geometry">
            <mxPoint x="440" y="314.5" as="sourcePoint" />
            <mxPoint x="520" y="314.5" as="targetPoint" />
          </mxGeometry>
        </mxCell>
        <mxCell id="213UL1gpD_efmZV_QsKg-56" value="" style="endArrow=classic;startArrow=classic;html=1;rounded=0;exitX=1;exitY=0.5;exitDx=0;exitDy=0;entryX=0;entryY=0.5;entryDx=0;entryDy=0;" edge="1" parent="1">
          <mxGeometry width="50" height="50" relative="1" as="geometry">
            <mxPoint x="600" y="319.5" as="sourcePoint" />
            <mxPoint x="680" y="319.5" as="targetPoint" />
          </mxGeometry>
        </mxCell>
        <mxCell id="213UL1gpD_efmZV_QsKg-57" value="" style="endArrow=classic;startArrow=classic;html=1;rounded=0;exitX=1;exitY=0.5;exitDx=0;exitDy=0;entryX=0;entryY=0.5;entryDx=0;entryDy=0;" edge="1" parent="1">
          <mxGeometry width="50" height="50" relative="1" as="geometry">
            <mxPoint x="760" y="319.5" as="sourcePoint" />
            <mxPoint x="840" y="319.5" as="targetPoint" />
          </mxGeometry>
        </mxCell>
        <mxCell id="213UL1gpD_efmZV_QsKg-58" value="" style="endArrow=classic;html=1;rounded=0;entryX=1;entryY=1;entryDx=0;entryDy=0;exitX=0;exitY=0;exitDx=0;exitDy=0;" edge="1" parent="1" source="213UL1gpD_efmZV_QsKg-37" target="213UL1gpD_efmZV_QsKg-34">
          <mxGeometry width="50" height="50" relative="1" as="geometry">
            <mxPoint x="530" y="310" as="sourcePoint" />
            <mxPoint x="580" y="260" as="targetPoint" />
          </mxGeometry>
        </mxCell>
        <mxCell id="213UL1gpD_efmZV_QsKg-59" value="" style="endArrow=classic;html=1;rounded=0;exitX=0;exitY=1;exitDx=0;exitDy=0;entryX=1;entryY=0;entryDx=0;entryDy=0;" edge="1" parent="1" source="213UL1gpD_efmZV_QsKg-36" target="213UL1gpD_efmZV_QsKg-35">
          <mxGeometry width="50" height="50" relative="1" as="geometry">
            <mxPoint x="530" y="310" as="sourcePoint" />
            <mxPoint x="580" y="260" as="targetPoint" />
          </mxGeometry>
        </mxCell>
        <mxCell id="213UL1gpD_efmZV_QsKg-60" value="" style="endArrow=classic;html=1;rounded=0;exitX=0;exitY=1;exitDx=0;exitDy=0;entryX=1;entryY=0;entryDx=0;entryDy=0;" edge="1" parent="1" source="213UL1gpD_efmZV_QsKg-38" target="213UL1gpD_efmZV_QsKg-37">
          <mxGeometry width="50" height="50" relative="1" as="geometry">
            <mxPoint x="290" y="380" as="sourcePoint" />
            <mxPoint x="340" y="330" as="targetPoint" />
          </mxGeometry>
        </mxCell>
        <mxCell id="213UL1gpD_efmZV_QsKg-61" value="" style="endArrow=classic;html=1;rounded=0;exitX=0;exitY=0;exitDx=0;exitDy=0;entryX=1;entryY=1;entryDx=0;entryDy=0;" edge="1" parent="1" source="213UL1gpD_efmZV_QsKg-39" target="213UL1gpD_efmZV_QsKg-36">
          <mxGeometry width="50" height="50" relative="1" as="geometry">
            <mxPoint x="530" y="310" as="sourcePoint" />
            <mxPoint x="580" y="260" as="targetPoint" />
          </mxGeometry>
        </mxCell>
        <mxCell id="213UL1gpD_efmZV_QsKg-62" value="" style="endArrow=classic;html=1;rounded=0;exitX=0;exitY=1;exitDx=0;exitDy=0;entryX=1;entryY=0;entryDx=0;entryDy=0;" edge="1" parent="1" source="213UL1gpD_efmZV_QsKg-40" target="213UL1gpD_efmZV_QsKg-39">
          <mxGeometry width="50" height="50" relative="1" as="geometry">
            <mxPoint x="530" y="310" as="sourcePoint" />
            <mxPoint x="580" y="260" as="targetPoint" />
          </mxGeometry>
        </mxCell>
        <mxCell id="213UL1gpD_efmZV_QsKg-63" value="" style="endArrow=classic;html=1;rounded=0;exitX=0;exitY=0;exitDx=0;exitDy=0;entryX=1;entryY=1;entryDx=0;entryDy=0;" edge="1" parent="1" source="213UL1gpD_efmZV_QsKg-41" target="213UL1gpD_efmZV_QsKg-38">
          <mxGeometry width="50" height="50" relative="1" as="geometry">
            <mxPoint x="530" y="310" as="sourcePoint" />
            <mxPoint x="580" y="260" as="targetPoint" />
          </mxGeometry>
        </mxCell>
        <mxCell id="213UL1gpD_efmZV_QsKg-64" value="&lt;font style=&quot;font-size: 16px;&quot;&gt;p&lt;span style=&quot;color: rgb(77, 81, 86); font-family: Arial, sans-serif; text-align: left;&quot;&gt;λq&lt;sub&gt;1&lt;/sub&gt;&lt;/span&gt;&lt;/font&gt;" style="text;html=1;align=center;verticalAlign=middle;whiteSpace=wrap;rounded=0;" vertex="1" parent="1">
          <mxGeometry x="310" y="130" width="60" height="30" as="geometry" />
        </mxCell>
        <mxCell id="213UL1gpD_efmZV_QsKg-65" value="&lt;font style=&quot;&quot;&gt;&lt;span style=&quot;font-size: 16px;&quot;&gt;p&lt;/span&gt;&lt;span style=&quot;color: rgb(77, 81, 86); font-family: Arial, sans-serif; text-align: left;&quot;&gt;&lt;span style=&quot;font-size: 16px;&quot;&gt;λq&lt;/span&gt;&lt;span style=&quot;font-size: 13.3333px;&quot;&gt;&lt;sub&gt;2&lt;/sub&gt;&lt;/span&gt;&lt;/span&gt;&lt;/font&gt;" style="text;html=1;align=center;verticalAlign=middle;whiteSpace=wrap;rounded=0;" vertex="1" parent="1">
          <mxGeometry x="300" y="320" width="60" height="30" as="geometry" />
        </mxCell>
        <mxCell id="213UL1gpD_efmZV_QsKg-66" value="&lt;font style=&quot;font-size: 16px;&quot;&gt;u&lt;sub&gt;1&lt;/sub&gt;&lt;/font&gt;" style="text;html=1;align=center;verticalAlign=middle;whiteSpace=wrap;rounded=0;" vertex="1" parent="1">
          <mxGeometry x="260" y="190" width="60" height="30" as="geometry" />
        </mxCell>
        <mxCell id="213UL1gpD_efmZV_QsKg-67" value="&lt;font style=&quot;font-size: 16px;&quot;&gt;u&lt;/font&gt;&lt;font style=&quot;font-size: 11.1111px;&quot;&gt;&lt;sub&gt;2&lt;/sub&gt;&lt;/font&gt;" style="text;html=1;align=center;verticalAlign=middle;whiteSpace=wrap;rounded=0;" vertex="1" parent="1">
          <mxGeometry x="260" y="260" width="60" height="30" as="geometry" />
        </mxCell>
        <mxCell id="213UL1gpD_efmZV_QsKg-70" value="&lt;font style=&quot;font-size: 16px;&quot;&gt;q&lt;sub&gt;1&lt;/sub&gt;u&lt;sub&gt;1&lt;/sub&gt;&lt;/font&gt;" style="text;html=1;align=center;verticalAlign=middle;whiteSpace=wrap;rounded=0;" vertex="1" parent="1">
          <mxGeometry x="420" y="120" width="60" height="30" as="geometry" />
        </mxCell>
        <mxCell id="213UL1gpD_efmZV_QsKg-76" value="&lt;font size=&quot;1&quot; style=&quot;&quot;&gt;&lt;span style=&quot;color: rgb(77, 81, 86); font-family: Arial, sans-serif; text-align: left; font-size: 16px;&quot;&gt;λ&lt;/span&gt;&lt;/font&gt;" style="text;html=1;align=center;verticalAlign=middle;whiteSpace=wrap;rounded=0;" vertex="1" parent="1">
          <mxGeometry x="100" y="400" width="60" height="30" as="geometry" />
        </mxCell>
        <mxCell id="213UL1gpD_efmZV_QsKg-78" value="&lt;font size=&quot;1&quot; style=&quot;&quot;&gt;&lt;span style=&quot;color: rgb(77, 81, 86); font-family: Arial, sans-serif; text-align: left; font-size: 16px;&quot;&gt;λ&lt;/span&gt;&lt;/font&gt;" style="text;html=1;align=center;verticalAlign=middle;whiteSpace=wrap;rounded=0;" vertex="1" parent="1">
          <mxGeometry x="470" y="320" width="60" height="30" as="geometry" />
        </mxCell>
        <mxCell id="213UL1gpD_efmZV_QsKg-79" value="&lt;font size=&quot;1&quot; style=&quot;&quot;&gt;&lt;span style=&quot;color: rgb(77, 81, 86); font-family: Arial, sans-serif; text-align: left; font-size: 16px;&quot;&gt;λ&lt;/span&gt;&lt;/font&gt;" style="text;html=1;align=center;verticalAlign=middle;whiteSpace=wrap;rounded=0;" vertex="1" parent="1">
          <mxGeometry x="470" y="120" width="60" height="30" as="geometry" />
        </mxCell>
        <mxCell id="213UL1gpD_efmZV_QsKg-82" value="&lt;font size=&quot;1&quot; style=&quot;&quot;&gt;&lt;span style=&quot;color: rgb(77, 81, 86); font-family: Arial, sans-serif; text-align: left; font-size: 16px;&quot;&gt;λ&lt;/span&gt;&lt;/font&gt;" style="text;html=1;align=center;verticalAlign=middle;whiteSpace=wrap;rounded=0;" vertex="1" parent="1">
          <mxGeometry x="140" y="440" width="60" height="30" as="geometry" />
        </mxCell>
        <mxCell id="213UL1gpD_efmZV_QsKg-83" value="&lt;font size=&quot;1&quot; style=&quot;&quot;&gt;&lt;span style=&quot;color: rgb(77, 81, 86); font-family: Arial, sans-serif; text-align: left; font-size: 16px;&quot;&gt;λ&lt;/span&gt;&lt;/font&gt;" style="text;html=1;align=center;verticalAlign=middle;whiteSpace=wrap;rounded=0;" vertex="1" parent="1">
          <mxGeometry x="800" y="120" width="60" height="30" as="geometry" />
        </mxCell>
        <mxCell id="213UL1gpD_efmZV_QsKg-84" value="&lt;font size=&quot;1&quot; style=&quot;&quot;&gt;&lt;span style=&quot;color: rgb(77, 81, 86); font-family: Arial, sans-serif; text-align: left; font-size: 16px;&quot;&gt;λ&lt;/span&gt;&lt;/font&gt;" style="text;html=1;align=center;verticalAlign=middle;whiteSpace=wrap;rounded=0;" vertex="1" parent="1">
          <mxGeometry x="800" y="320" width="60" height="30" as="geometry" />
        </mxCell>
        <mxCell id="213UL1gpD_efmZV_QsKg-85" value="&lt;font size=&quot;1&quot; style=&quot;&quot;&gt;&lt;span style=&quot;color: rgb(77, 81, 86); font-family: Arial, sans-serif; text-align: left; font-size: 16px;&quot;&gt;λ&lt;/span&gt;&lt;/font&gt;" style="text;html=1;align=center;verticalAlign=middle;whiteSpace=wrap;rounded=0;" vertex="1" parent="1">
          <mxGeometry x="640" y="325" width="60" height="30" as="geometry" />
        </mxCell>
        <mxCell id="213UL1gpD_efmZV_QsKg-86" value="&lt;font size=&quot;1&quot; style=&quot;&quot;&gt;&lt;span style=&quot;color: rgb(77, 81, 86); font-family: Arial, sans-serif; text-align: left; font-size: 16px;&quot;&gt;λ&lt;/span&gt;&lt;/font&gt;" style="text;html=1;align=center;verticalAlign=middle;whiteSpace=wrap;rounded=0;" vertex="1" parent="1">
          <mxGeometry x="640" y="120" width="60" height="30" as="geometry" />
        </mxCell>
        <mxCell id="213UL1gpD_efmZV_QsKg-92" value="&lt;font style=&quot;font-size: 14px;&quot;&gt;q&lt;sub style=&quot;&quot;&gt;2&lt;/sub&gt;u&lt;/font&gt;&lt;font style=&quot;font-size: 11.6667px;&quot;&gt;&lt;sub&gt;2&lt;/sub&gt;&lt;/font&gt;" style="text;html=1;align=center;verticalAlign=middle;whiteSpace=wrap;rounded=0;" vertex="1" parent="1">
          <mxGeometry x="390" y="255" width="60" height="30" as="geometry" />
        </mxCell>
        <mxCell id="213UL1gpD_efmZV_QsKg-95" value="&lt;font style=&quot;font-size: 14px;&quot;&gt;q&lt;sub style=&quot;&quot;&gt;2&lt;/sub&gt;u&lt;sub style=&quot;&quot;&gt;1&lt;/sub&gt;&lt;/font&gt;" style="text;html=1;align=center;verticalAlign=middle;whiteSpace=wrap;rounded=0;" vertex="1" parent="1">
          <mxGeometry x="710" y="255" width="60" height="30" as="geometry" />
        </mxCell>
        <mxCell id="213UL1gpD_efmZV_QsKg-96" value="&lt;font style=&quot;font-size: 14px;&quot;&gt;q&lt;sub style=&quot;&quot;&gt;2&lt;/sub&gt;u&lt;sub style=&quot;&quot;&gt;1&lt;/sub&gt;&lt;/font&gt;" style="text;html=1;align=center;verticalAlign=middle;whiteSpace=wrap;rounded=0;" vertex="1" parent="1">
          <mxGeometry x="550" y="255" width="60" height="30" as="geometry" />
        </mxCell>
        <mxCell id="213UL1gpD_efmZV_QsKg-97" value="&lt;font style=&quot;font-size: 14px;&quot;&gt;q&lt;/font&gt;&lt;font style=&quot;font-size: 11.6667px;&quot;&gt;&lt;sub&gt;1&lt;/sub&gt;&lt;/font&gt;&lt;font style=&quot;&quot;&gt;&lt;span style=&quot;font-size: 14px;&quot;&gt;u&lt;sub&gt;2&lt;/sub&gt;&lt;/span&gt;&lt;/font&gt;" style="text;html=1;align=center;verticalAlign=middle;whiteSpace=wrap;rounded=0;" vertex="1" parent="1">
          <mxGeometry x="390" y="200" width="60" height="30" as="geometry" />
        </mxCell>
        <mxCell id="213UL1gpD_efmZV_QsKg-99" value="&lt;font style=&quot;font-size: 14px;&quot;&gt;q&lt;/font&gt;&lt;font style=&quot;font-size: 11.6667px;&quot;&gt;&lt;sub&gt;1&lt;/sub&gt;&lt;/font&gt;&lt;font style=&quot;&quot;&gt;&lt;span style=&quot;font-size: 14px;&quot;&gt;u&lt;sub&gt;2&lt;/sub&gt;&lt;/span&gt;&lt;/font&gt;" style="text;html=1;align=center;verticalAlign=middle;whiteSpace=wrap;rounded=0;" vertex="1" parent="1">
          <mxGeometry x="710" y="195" width="60" height="30" as="geometry" />
        </mxCell>
        <mxCell id="213UL1gpD_efmZV_QsKg-100" value="&lt;font style=&quot;font-size: 14px;&quot;&gt;q&lt;/font&gt;&lt;font style=&quot;font-size: 11.6667px;&quot;&gt;&lt;sub&gt;1&lt;/sub&gt;&lt;/font&gt;&lt;font style=&quot;&quot;&gt;&lt;span style=&quot;font-size: 14px;&quot;&gt;u&lt;sub&gt;2&lt;/sub&gt;&lt;/span&gt;&lt;/font&gt;" style="text;html=1;align=center;verticalAlign=middle;whiteSpace=wrap;rounded=0;" vertex="1" parent="1">
          <mxGeometry x="580" y="175" width="60" height="30" as="geometry" />
        </mxCell>
        <mxCell id="213UL1gpD_efmZV_QsKg-101" value="&lt;font style=&quot;font-size: 16px;&quot;&gt;q&lt;sub&gt;1&lt;/sub&gt;u&lt;sub&gt;1&lt;/sub&gt;&lt;/font&gt;" style="text;html=1;align=center;verticalAlign=middle;whiteSpace=wrap;rounded=0;" vertex="1" parent="1">
          <mxGeometry x="740" y="120" width="60" height="30" as="geometry" />
        </mxCell>
        <mxCell id="213UL1gpD_efmZV_QsKg-102" value="&lt;font style=&quot;font-size: 16px;&quot;&gt;q&lt;sub&gt;1&lt;/sub&gt;u&lt;sub&gt;1&lt;/sub&gt;&lt;/font&gt;" style="text;html=1;align=center;verticalAlign=middle;whiteSpace=wrap;rounded=0;" vertex="1" parent="1">
          <mxGeometry x="590" y="120" width="60" height="30" as="geometry" />
        </mxCell>
        <mxCell id="213UL1gpD_efmZV_QsKg-103" value="&lt;font style=&quot;font-size: 14px;&quot;&gt;q&lt;sub style=&quot;&quot;&gt;2&lt;/sub&gt;u&lt;/font&gt;&lt;font style=&quot;font-size: 11.6667px;&quot;&gt;&lt;sub&gt;2&lt;/sub&gt;&lt;/font&gt;" style="text;html=1;align=center;verticalAlign=middle;whiteSpace=wrap;rounded=0;" vertex="1" parent="1">
          <mxGeometry x="580" y="325" width="60" height="30" as="geometry" />
        </mxCell>
        <mxCell id="213UL1gpD_efmZV_QsKg-104" value="&lt;font style=&quot;font-size: 14px;&quot;&gt;q&lt;sub style=&quot;&quot;&gt;2&lt;/sub&gt;u&lt;/font&gt;&lt;font style=&quot;font-size: 11.6667px;&quot;&gt;&lt;sub&gt;2&lt;/sub&gt;&lt;/font&gt;" style="text;html=1;align=center;verticalAlign=middle;whiteSpace=wrap;rounded=0;" vertex="1" parent="1">
          <mxGeometry x="420" y="320" width="60" height="30" as="geometry" />
        </mxCell>
        <mxCell id="213UL1gpD_efmZV_QsKg-105" value="&lt;font style=&quot;font-size: 14px;&quot;&gt;q&lt;sub style=&quot;&quot;&gt;2&lt;/sub&gt;u&lt;/font&gt;&lt;font style=&quot;font-size: 11.6667px;&quot;&gt;&lt;sub&gt;2&lt;/sub&gt;&lt;/font&gt;" style="text;html=1;align=center;verticalAlign=middle;whiteSpace=wrap;rounded=0;" vertex="1" parent="1">
          <mxGeometry x="740" y="325" width="60" height="30" as="geometry" />
        </mxCell>
      </root>
    </mxGraphModel>
  </diagram>
</mxfile>
